<?xml version="1.0" encoding="iso-8859-1"?>
<!-- Generator: Adobe Illustrator 23.0.2, SVG Export Plug-In . SVG Version: 6.00 Build 0)  -->
<svg version="1.1" id="Capa_1" xmlns="http://www.w3.org/2000/svg" xmlns:xlink="http://www.w3.org/1999/xlink" x="0px" y="0px"
	 viewBox="-49 141 512 512" style="enable-background:new -49 141 512 512;" xml:space="preserve">
<path style="fill:#FFFFFF;" d="M297.201,453.123c0,19.074,15.554,34.592,34.672,34.592s34.672-15.518,34.672-34.592
	s-15.554-34.593-34.672-34.593C312.755,418.53,297.201,434.049,297.201,453.123z M351.545,453.123
	c0,10.803-8.825,19.592-19.672,19.592c-10.847,0-19.672-8.789-19.672-19.592c0-10.804,8.825-19.593,19.672-19.593
	S351.545,442.319,351.545,453.123z"/>
<path style="fill:#FFFFFF;" d="M305.53,416.83c1.39-1.391,2.189-3.32,2.189-5.3c0-1.971-0.8-3.9-2.189-5.301
	c-1.4-1.399-3.33-2.199-5.301-2.199c-1.979,0-3.91,0.8-5.31,2.199c-1.4,1.391-2.19,3.33-2.19,5.301c0,1.979,0.79,3.909,2.19,5.3
	c1.399,1.399,3.33,2.2,5.31,2.2C302.2,419.03,304.13,418.229,305.53,416.83z"/>
<path style="fill:#FFFFFF;" d="M276.74,382.84c-1.98,0-3.91,0.8-5.311,2.2c-1.39,1.39-2.2,3.319-2.2,5.3c0,1.97,0.811,3.91,2.2,5.3
	c1.4,1.4,3.33,2.2,5.311,2.2c1.97,0,3.899-0.8,5.3-2.2c1.4-1.39,2.2-3.33,2.2-5.3s-0.801-3.91-2.2-5.3
	C280.64,383.64,278.71,382.84,276.74,382.84z"/>
<path style="fill:#FFFFFF;" d="M327.399,399.27c0,1.971,0.801,3.9,2.2,5.3c1.391,1.391,3.33,2.2,5.3,2.2c1.98,0,3.91-0.81,5.301-2.2
	c1.399-1.399,2.199-3.329,2.199-5.3c0-1.979-0.8-3.91-2.199-5.309c-1.391-1.4-3.32-2.2-5.301-2.2c-1.97,0-3.909,0.8-5.3,2.2
	C328.2,395.359,327.399,397.29,327.399,399.27z"/>
<path style="fill:#FFFFFF;" d="M305.819,391.149c1.971,0,3.9-0.8,5.301-2.199c1.399-1.4,2.199-3.33,2.199-5.301
	c0-1.97-0.8-3.909-2.199-5.3c-1.391-1.399-3.33-2.2-5.301-2.2c-1.979,0-3.909,0.801-5.31,2.2c-1.39,1.391-2.19,3.33-2.19,5.3
	c0,1.971,0.801,3.91,2.19,5.301C301.91,390.35,303.84,391.149,305.819,391.149z"/>
<path style="fill:#FFFFFF;" d="M276.74,349.38c-1.98,0-3.91,0.8-5.311,2.2c-1.39,1.399-2.2,3.33-2.2,5.3c0,1.98,0.811,3.91,2.2,5.31
	c1.4,1.391,3.33,2.19,5.311,2.19c1.97,0,3.899-0.8,5.3-2.19c1.4-1.4,2.2-3.33,2.2-5.31c0-1.97-0.801-3.9-2.2-5.3
	C280.64,350.18,278.71,349.38,276.74,349.38z"/>
<path style="fill:#FFFFFF;" d="M190.977,473.69h32.395c4.143,0,7.5-3.357,7.5-7.5c0-4.142-3.357-7.5-7.5-7.5h-32.395
	c-4.142,0-7.5,3.358-7.5,7.5C183.477,470.333,186.835,473.69,190.977,473.69z"/>
<path style="fill:#FFFFFF;" d="M190.977,501.954h32.395c4.143,0,7.5-3.357,7.5-7.5s-3.357-7.5-7.5-7.5h-32.395
	c-4.142,0-7.5,3.357-7.5,7.5S186.835,501.954,190.977,501.954z"/>
<path style="fill:#FFFFFF;" d="M450.5,407.93h-50.997V212.216c0-6.893-5.607-12.5-12.5-12.5H244.039c-6.893,0-12.5,5.607-12.5,12.5
	V371.21h-27.06v-14.697h3.674c6.893,0,12.5-5.607,12.5-12.5v-34.326c0-6.893-5.607-12.5-12.5-12.5H70.129
	c-6.893,0-12.5,5.607-12.5,12.5v34.326c0,6.893,5.607,12.5,12.5,12.5h3.669v14.697H40.595c-15.301,0-27.748,12.421-27.748,27.687
	v46.14h-23.715c-6.893,0-12.5,5.607-12.5,12.5v24.57H-31.5c-9.649,0-17.5,7.851-17.5,17.5v126.291c0,9.65,7.851,17.5,17.5,17.5
	h137.642c9.649,0,17.5-7.85,17.5-17.5v-10.891h114.04c15.301,0,27.749-12.421,27.749-27.689v-34.706h115.331v78.285
	c0,6.893,5.607,12.5,12.5,12.5h45.866c6.893,0,12.5-5.607,12.5-12.5V450.566c6.365-0.572,11.372-5.931,11.372-12.442V420.43
	C463,413.537,457.393,407.93,450.5,407.93z M436.628,533.603l-40.866,40.744v-30.206l40.866-40.744V533.603z M395.762,522.959
	v-72.335h40.866v31.591L395.762,522.959z M448,435.624h-63.609V422.93H448V435.624z M384.503,214.716v99.881H371
	c-4.143,0-7.5,3.357-7.5,7.5s3.357,7.5,7.5,7.5h13.503v78.333h-2.612c-6.893,0-12.5,5.607-12.5,12.5v17.694
	c0,6.512,5.006,11.87,11.371,12.442v58.314H265.431V398.897c0-12.177-7.923-22.535-18.892-26.232v-43.068H326
	c4.143,0,7.5-3.357,7.5-7.5s-3.357-7.5-7.5-7.5h-79.461v-99.881H384.503z M250.431,528.677h-89.753v-98.054h89.753V528.677z
	 M88.798,356.513H142c4.143,0,7.5-3.357,7.5-7.5s-3.357-7.5-7.5-7.5H72.629v-29.326h133.024v29.326H182c-4.143,0-7.5,3.357-7.5,7.5
	s3.357,7.5,7.5,7.5h7.48v14.697H88.798V356.513z M27.847,398.897c0-6.996,5.719-12.687,12.748-12.687h197.087
	c7.03,0,12.749,5.691,12.749,12.687v16.725H157.23c-6.37,0-11.552,5.176-11.552,11.538v104.978c0,6.362,5.182,11.538,11.552,11.538
	h93.201v29.413H123.642v-73.482c0-9.649-7.851-17.5-17.5-17.5H98.01v-24.57c0-6.893-5.607-12.5-12.5-12.5H27.847V398.897z
	 M-8.368,460.037H83.01v22.07H-8.368V460.037z M-31.5,497.107h137.642c1.355,0,2.5,1.145,2.5,2.5v18.107H88
	c-4.143,0-7.5,3.357-7.5,7.5s3.357,7.5,7.5,7.5h20.642v54.984H10.415v-54.984H48c4.143,0,7.5-3.357,7.5-7.5s-3.357-7.5-7.5-7.5
	H10.415H-34v-18.107C-34,498.252-32.855,497.107-31.5,497.107z M-34,532.715h29.415v54.984H-34V532.715z M106.142,628.398H-31.5
	c-1.355,0-2.5-1.145-2.5-2.5v-23.199h44.415h98.227v23.199C108.642,627.254,107.497,628.398,106.142,628.398z M237.682,600.008
	h-114.04V588.09h126.75C249.988,594.727,244.45,600.008,237.682,600.008z M265.431,537.613v-13.732h115.331v13.732H265.431z
	 M395.762,628.398v-32.87l40.866-40.744v73.614H395.762z"/>
<path style="fill:#FFFFFF;" d="M162.192,240.8c-12.336,0-22.372,10.034-22.372,22.367c0,12.334,10.036,22.368,22.372,22.368h27.76
	c12.336,0,22.372-10.034,22.372-22.368c0-12.333-10.036-22.367-22.372-22.367H162.192z M197.324,263.167
	c0,4.063-3.307,7.368-7.372,7.368h-27.76c-4.065,0-7.372-3.306-7.372-7.368c0-4.062,3.307-7.367,7.372-7.367h27.76
	C194.018,255.8,197.324,259.104,197.324,263.167z"/>
<path style="fill:#FFFFFF;" d="M118.668,253.717c5.976,0,11.593-2.326,15.818-6.551l19.63-19.624
	c4.226-4.225,6.553-9.842,6.553-15.816s-2.327-11.592-6.553-15.818c-4.226-4.224-9.844-6.55-15.818-6.55
	c-5.976,0-11.594,2.326-15.818,6.551l-19.63,19.624c-4.226,4.225-6.553,9.842-6.553,15.817c0,5.975,2.327,11.593,6.553,15.816
	C107.075,251.391,112.692,253.717,118.668,253.717z M113.455,226.141l19.63-19.625c1.392-1.392,3.243-2.158,5.213-2.158
	s3.821,0.767,5.212,2.158c1.393,1.392,2.159,3.242,2.159,5.21s-0.767,3.816-2.158,5.208l-19.63,19.625
	c-1.393,1.392-3.244,2.158-5.213,2.158s-3.82-0.767-5.213-2.158c-1.392-1.392-2.158-3.241-2.158-5.209
	C111.297,229.382,112.064,227.532,113.455,226.141z"/>
<path style="fill:#FFFFFF;" d="M180.876,208.41c4.225,4.225,9.842,6.551,15.817,6.551s11.593-2.326,15.819-6.55
	c4.226-4.225,6.553-9.843,6.553-15.817c0-5.976-2.327-11.593-6.553-15.816l-19.63-19.626c-4.226-4.224-9.844-6.55-15.818-6.55
	c-5.975,0-11.593,2.326-15.818,6.551c-4.226,4.225-6.553,9.842-6.553,15.817c-0.001,5.975,2.326,11.592,6.552,15.815L180.876,208.41
	z M171.852,167.76c1.392-1.392,3.243-2.158,5.213-2.158s3.821,0.767,5.214,2.158l19.63,19.626c1.392,1.391,2.157,3.24,2.157,5.208
	c0,1.968-0.767,3.817-2.157,5.208c-1.394,1.393-3.245,2.159-5.215,2.159c-1.969,0-3.82-0.767-5.212-2.158l-19.631-19.625
	c-1.392-1.392-2.157-3.24-2.157-5.208C169.693,171.002,170.46,169.151,171.852,167.76z"/>
</svg>
