<?xml version="1.0" encoding="iso-8859-1"?>
<!-- Generator: Adobe Illustrator 23.0.2, SVG Export Plug-In . SVG Version: 6.00 Build 0)  -->
<svg version="1.1" id="Capa_1" xmlns="http://www.w3.org/2000/svg" xmlns:xlink="http://www.w3.org/1999/xlink" x="0px" y="0px"
	 viewBox="-49 141 512 512" style="enable-background:new -49 141 512 512;" xml:space="preserve">
<path style="fill:#FFFFFF;" d="M76.768,294.902c-69.22,0-125.535,56.315-125.535,125.535c0,42.977,20.444,89.185,60.765,137.341
	c5.991,7.155,11.961,13.785,17.69,19.834c-26.034,7.106-41.665,19.873-41.665,34.774c0,26.379,45.722,40.613,88.741,40.613
	s88.741-14.235,88.741-40.613c0-14.889-15.626-27.659-41.643-34.768c10.394-10.973,21.578-23.883,32.19-38.283
	c2.46-3.339,1.748-8.038-1.59-10.498c-3.336-2.457-8.038-1.747-10.498,1.591c-12.812,17.387-26.68,32.667-38.781,44.804
	c-1.387,0.708-2.547,1.832-3.274,3.249c-10.84,10.653-19.962,18.556-25.138,22.874c-5.119-4.276-14.102-12.072-24.803-22.586
	c-0.768-1.683-2.117-3.003-3.763-3.739c-34.007-34.205-81.957-93.301-81.957-154.591c0-60.94,49.579-110.519,110.519-110.519
	s110.519,49.579,110.519,110.519c0,26.613-9.068,55.353-26.952,85.422c-2.119,3.565-0.949,8.172,2.615,10.291
	s8.172,0.949,10.291-2.615c19.284-32.424,29.062-63.746,29.062-93.098C202.303,351.217,145.988,294.902,76.768,294.902z
	 M76.768,618.54c1.621,0,3.242-0.523,4.595-1.57c0.921-0.713,13.467-10.497,30.19-26.848c25.322,5.164,38.938,15.107,38.938,22.264
	c0,5.345-7.326,11.651-19.119,16.456c-14.464,5.895-33.857,9.142-54.607,9.142c-45.006,0-73.726-15.162-73.726-25.598
	c0-7.167,13.62-17.105,38.956-22.269c16.817,16.448,29.381,26.235,30.178,26.853C73.526,618.018,75.147,618.54,76.768,618.54z"/>
<path style="fill:#FFFFFF;" d="M33.586,400.211c-3.984-1.14-8.143,1.16-9.288,5.145c-1.401,4.883-2.112,9.956-2.112,15.081
	c0,30.096,24.485,54.582,54.582,54.582s54.582-24.485,54.582-54.582c0-30.097-24.486-54.583-54.582-54.583
	c-11.875,0-23.167,3.749-32.655,10.842c-3.32,2.483-4,7.189-1.518,10.509c2.484,3.32,7.188,3.999,10.509,1.518
	c6.871-5.137,15.054-7.853,23.663-7.853c21.817,0,39.566,17.749,39.566,39.567c0,21.817-17.749,39.566-39.566,39.566
	s-39.566-17.75-39.566-39.566c0-3.723,0.515-7.404,1.53-10.938C39.875,405.513,37.571,401.355,33.586,400.211z"/>
<path style="fill:#FFFFFF;" d="M434.485,386.747c0-11.896-11.182-21.804-30.528-27.626c3.82-4.099,7.755-8.515,11.701-13.229
	c31.258-37.333,47.107-73.222,47.107-106.673c0-54.157-44.061-98.219-98.219-98.219c-39.563,0-75.086,23.546-90.497,59.986
	c-1.616,3.819,0.171,8.225,3.989,9.839c3.818,1.614,8.225-0.171,9.839-3.989c13.058-30.872,43.152-50.821,76.669-50.821
	c45.879,0,83.204,37.326,83.204,83.205c0,62.043-65.138,121.484-83.207,136.775c-3.982-3.366-10.25-8.873-17.599-16.077
	c-0.733-1.453-1.917-2.605-3.339-3.318c-25.923-26.101-62.263-70.968-62.263-117.38c0-4.147-3.361-7.508-7.508-7.508
	c-4.146,0-7.508,3.361-7.508,7.508c0,33.45,15.849,69.339,47.108,106.673c3.945,4.711,7.877,9.125,11.695,13.223
	c-19.354,5.815-30.527,15.713-30.527,27.632c0,10.051,8.154,18.911,22.962,24.944c12.67,5.163,29.355,8.007,46.981,8.007
	c17.625,0,34.31-2.844,46.981-8.007C426.332,405.658,434.485,396.798,434.485,386.747z M364.545,404.682
	c-35.539,0-54.926-11.848-54.926-17.936c0-3.966,8.819-11.224,27.651-15.228c12.671,12.329,22.076,19.655,22.683,20.126
	c1.353,1.047,2.974,1.57,4.595,1.57c1.621,0,3.241-0.523,4.595-1.57c0.607-0.469,10.01-7.796,22.681-20.124
	c8.39,1.789,15.658,4.41,20.744,7.506c4.324,2.634,6.904,5.52,6.904,7.72C419.47,392.834,400.084,404.682,364.545,404.682z"/>
<path style="fill:#FFFFFF;" d="M408.235,239.22c0-24.089-19.598-43.688-43.689-43.688c-24.089,0-43.688,19.598-43.688,43.688
	c0,24.089,19.598,43.687,43.688,43.687S408.235,263.31,408.235,239.22z M335.875,239.22c0-15.81,12.862-28.673,28.673-28.673
	c15.81,0,28.673,12.862,28.673,28.673c0,15.809-12.862,28.672-28.673,28.672C348.736,267.892,335.875,255.03,335.875,239.22z"/>
<path style="fill:#FFFFFF;" d="M267.157,394.255c4.147,0,7.508-3.36,7.508-7.508c0-4.147-3.36-7.508-7.508-7.508h-3.428
	c-2.496,0-5.004,0.165-7.458,0.492c-4.109,0.547-6.998,4.322-6.452,8.433c0.503,3.775,3.727,6.519,7.433,6.519
	c0.33,0,0.664-0.021,1-0.066c1.799-0.239,3.642-0.36,5.478-0.36h3.427V394.255z"/>
<path style="fill:#FFFFFF;" d="M242.336,604.496c-0.012,0-0.023,0-0.035,0l-9.916,0.045c-4.146,0.019-7.492,3.396-7.474,7.542
	c0.018,4.135,3.376,7.474,7.507,7.474c0.012,0,0.023,0,0.035,0l9.916-0.045c4.146-0.019,7.492-3.396,7.474-7.542
	C249.825,607.834,246.467,604.496,242.336,604.496z"/>
<path style="fill:#FFFFFF;" d="M276.066,491.505c4.147,0,7.508-3.361,7.508-7.508c0-4.146-3.361-7.508-7.508-7.508h-9.916
	c-4.147,0-7.508,3.361-7.508,7.508c0,4.147,3.36,7.508,7.508,7.508H276.066z"/>
<path style="fill:#FFFFFF;" d="M219.827,413.138c1.325,0.952,2.857,1.41,4.374,1.41c2.335,0,4.637-1.087,6.104-3.129
	c1.63-2.269,3.498-4.381,5.551-6.275c3.048-2.811,3.239-7.561,0.428-10.609c-2.811-3.046-7.559-3.238-10.609-0.428
	c-2.799,2.581-5.345,5.458-7.567,8.552C215.69,406.029,216.459,410.72,219.827,413.138z"/>
<path style="fill:#FFFFFF;" d="M282.002,604.314c-0.012,0-0.023,0-0.035,0l-9.915,0.045c-4.146,0.018-7.492,3.396-7.474,7.542
	c0.018,4.135,3.376,7.474,7.507,7.474c0.012,0,0.023,0,0.035,0l9.915-0.045c4.146-0.018,7.492-3.396,7.474-7.542
	C289.49,607.653,286.132,604.314,282.002,604.314z"/>
<path style="fill:#FFFFFF;" d="M202.671,604.675c-0.012,0-0.023,0-0.035,0l-9.916,0.045c-4.146,0.019-7.492,3.396-7.474,7.542
	c0.019,4.135,3.376,7.474,7.507,7.474c0.012,0,0.023,0,0.035,0l9.916-0.045c4.146-0.019,7.492-3.396,7.474-7.542
	C210.16,608.013,206.802,604.675,202.671,604.675z"/>
<path style="fill:#FFFFFF;" d="M237.817,484.037c2.492,0,4.929-1.239,6.358-3.504c2.212-3.507,1.162-8.143-2.345-10.356
	c-2.359-1.488-4.578-3.226-6.593-5.163c-2.989-2.875-7.743-2.78-10.616,0.206c-2.875,2.988-2.782,7.741,0.206,10.615
	c2.748,2.643,5.773,5.012,8.991,7.042C235.062,483.663,236.446,484.037,237.817,484.037z"/>
<path style="fill:#FFFFFF;" d="M223.373,443.287c-0.504-2.588-0.76-5.25-0.76-7.914l0.002-0.417c0.049-4.146-3.273-7.546-7.42-7.594
	c-0.029-0.001-0.059-0.001-0.089-0.001c-4.106,0-7.458,3.304-7.506,7.421l-0.003,0.592c0,3.626,0.349,7.255,1.037,10.786
	c0.698,3.585,3.84,6.072,7.361,6.072c0.476,0,0.959-0.045,1.443-0.14C221.509,451.299,224.165,447.357,223.373,443.287z"/>
<path style="fill:#FFFFFF;" d="M315.733,491.505c4.147,0,7.508-3.361,7.508-7.508c0-4.146-3.36-7.508-7.508-7.508h-9.916
	c-4.147,0-7.508,3.361-7.508,7.508c0,4.147,3.36,7.508,7.508,7.508H315.733z"/>
<path style="fill:#FFFFFF;" d="M431.616,505.176c2.218,0,4.416-0.98,5.898-2.856c2.569-3.254,2.014-7.976-1.24-10.545
	c-2.893-2.283-5.985-4.358-9.192-6.162c-3.609-2.036-8.191-0.757-10.226,2.856c-2.035,3.612-0.757,8.192,2.856,10.226
	c2.53,1.426,4.972,3.063,7.256,4.866C428.348,504.65,429.987,505.176,431.616,505.176z"/>
<path style="fill:#FFFFFF;" d="M399.94,603.284c-2.459,0.34-4.977,0.519-7.488,0.529l-1.405,0.007
	c-4.147,0.021-7.492,3.399-7.472,7.544c0.021,4.134,3.378,7.472,7.507,7.472c0.013,0,0.025,0,0.037,0l1.402-0.007
	c3.171-0.014,6.359-0.239,9.474-0.67c4.108-0.568,6.977-4.359,6.41-8.465C407.836,605.587,404.04,602.712,399.94,603.284z"/>
<path style="fill:#FFFFFF;" d="M430.926,588.323c-2.107,2.007-4.387,3.865-6.778,5.523c-3.407,2.362-4.254,7.04-1.893,10.449
	c1.459,2.103,3.798,3.231,6.177,3.231c1.476,0,2.966-0.434,4.271-1.338c3.026-2.099,5.913-4.451,8.58-6.992
	c3.002-2.86,3.116-7.613,0.256-10.614C438.679,585.577,433.926,585.462,430.926,588.323z"/>
<path style="fill:#FFFFFF;" d="M456.152,552.118c-4.069-0.767-7.999,1.913-8.767,5.988c-0.539,2.857-1.305,5.692-2.28,8.428
	c-1.392,3.905,0.645,8.2,4.551,9.593c0.833,0.297,1.685,0.438,2.522,0.438c3.084,0,5.976-1.916,7.072-4.988
	c1.237-3.47,2.21-7.067,2.893-10.692C462.908,556.81,460.226,552.884,456.152,552.118z"/>
<path style="fill:#FFFFFF;" d="M446.746,513.97c-3.757,1.754-5.382,6.221-3.629,9.979c1.23,2.635,2.26,5.387,3.061,8.177
	c0.945,3.293,3.949,5.439,7.212,5.439c0.687,0,1.383-0.095,2.075-0.293c3.986-1.144,6.289-5.302,5.145-9.288
	c-1.018-3.545-2.324-7.037-3.886-10.384C454.972,513.842,450.508,512.218,446.746,513.97z"/>
<path style="fill:#FFFFFF;" d="M355.399,491.505c4.147,0,7.508-3.361,7.508-7.508c0-4.146-3.36-7.508-7.508-7.508h-9.916
	c-4.147,0-7.508,3.361-7.508,7.508c0,4.147,3.36,7.508,7.508,7.508H355.399z"/>
<path style="fill:#FFFFFF;" d="M321.668,604.134c-0.012,0-0.023,0-0.035,0l-9.916,0.045c-4.146,0.018-7.492,3.396-7.474,7.542
	c0.019,4.135,3.376,7.474,7.507,7.474c0.012,0,0.023,0,0.035,0l9.916-0.045c4.146-0.019,7.492-3.396,7.474-7.542
	C329.157,607.473,325.798,604.134,321.668,604.134z"/>
<path style="fill:#FFFFFF;" d="M392.198,491.505c0.849,0,1.693,0.019,2.532,0.056c0.113,0.006,0.226,0.008,0.338,0.008
	c3.993,0,7.317-3.146,7.494-7.175c0.184-4.143-3.025-7.65-7.167-7.832c-1.062-0.048-2.138-0.071-3.196-0.071h-7.051
	c-4.147,0-7.508,3.361-7.508,7.508c0,4.147,3.361,7.508,7.508,7.508L392.198,491.505L392.198,491.505z"/>
<path style="fill:#FFFFFF;" d="M361.333,603.955c-0.012,0-0.023,0-0.035,0L351.382,604c-4.146,0.018-7.492,3.396-7.474,7.542
	c0.019,4.135,3.376,7.474,7.507,7.474c0.012,0,0.024,0,0.035,0l9.916-0.045c4.146-0.019,7.492-3.396,7.474-7.542
	C368.822,607.293,365.464,603.955,361.333,603.955z"/>
</svg>
