<?xml version="1.0" encoding="iso-8859-1"?>
<!-- Generator: Adobe Illustrator 23.0.2, SVG Export Plug-In . SVG Version: 6.00 Build 0)  -->
<svg version="1.1" id="&#x421;&#x43B;&#x43E;&#x439;_1"
	 xmlns="http://www.w3.org/2000/svg" xmlns:xlink="http://www.w3.org/1999/xlink" x="0px" y="0px" viewBox="0 0 413.568 551.747"
	 style="enable-background:new 0 0 413.568 551.747;" xml:space="preserve">
<g>
	<path style="fill:#FFFFFF;" d="M254.926,74.419c-2.926-2.93-7.676-2.93-10.606,0l-53.293,53.293c-2.929,2.926-2.929,7.676,0,10.605
		c2.93,2.93,7.68,2.93,10.606,0l53.293-53.293C257.855,82.095,257.855,77.349,254.926,74.419L254.926,74.419z"/>
	<path style="fill:#FFFFFF;" d="M203.922,79.809c0,4.141-3.36,7.5-7.5,7.5c-4.145,0-7.5-3.359-7.5-7.5c0-4.14,3.355-7.5,7.5-7.5
		C200.562,72.309,203.922,75.669,203.922,79.809L203.922,79.809z"/>
	<g>
		<g>
			<path style="fill:#FFFFFF;" d="M257.035,132.927c0,4.14-3.359,7.496-7.5,7.496c-4.144,0-7.5-3.356-7.5-7.496
				c0-4.145,3.356-7.5,7.5-7.5C253.676,125.427,257.035,128.782,257.035,132.927L257.035,132.927z"/>
		</g>
		<g>
			<path style="fill:#FFFFFF;" d="M389.492,314.45c-9.262-11.969-25.426-16.246-39.304-10.715
				c-8.25-20.836-31.422-23.304-45.528-14.797l-89.883,54.223c-6.675-1.039-13.5-2.102-20-3.113
				c12.969-6.824,22.266-17.121,27.641-30.621c3.621-9.094,1.684-19.164-5.055-26.282c-6.675-7.054-16.527-9.519-25.711-6.433
				c-14.644,4.922-31.386,8.422-49.757,10.41c-26.883,2.902-50.602,17.734-65.067,40.687L6.391,433.259
				c-5.762,8.226-7.75,18.55-5.465,28.328c2.289,9.777,8.656,18.148,17.469,22.965l83.3,45.511
				c6.828,3.731,14.219,5.516,21.52,5.516c14.242,0,28.14-6.797,36.808-19.246l27.539-39.543
				c10.719-18.477,3.379-32.281,2.387-34.246c0,0,87.399-21.934,87.961-22.246l101.098-55.477
				C404.691,350.079,395.559,322.29,389.492,314.45L389.492,314.45z M312.406,301.782c7.426-4.476,18.801-4.672,24.262,8.496
				l-61.164,30.156c-11.723,5.782-24.684,7.938-37.606,6.297L312.406,301.782z M371.793,351.669l-100.25,55.015l-92.789,23.196
				c-1.547-1.035-73.016-33.383-73.016-33.383c-3.777-1.699-8.218-0.016-9.918,3.762c-1.699,3.773-0.015,8.215,3.762,9.914
				l68.102,30.656c5.023,2.262,8.746,6.605,10.214,11.918c1.469,5.309,0.504,10.949-2.644,15.469l-27.539,39.543
				c-8.727,12.535-25.422,16.465-38.828,9.14l-83.301-45.511c-12.477-8.223-12.988-20.477-6.91-29.524l36.262-51.785l13.949,6.281
				c3.777,1.699,8.218,0.016,9.918-3.761c1.699-3.778,0.015-8.219-3.762-9.918l-11.742-5.286l26.215-41.589
				c12.011-19.055,31.687-31.364,53.992-33.77c19.445-2.102,37.25-5.84,52.922-11.105c3.632-1.223,7.386-0.278,10.039,2.527
				c2.719,2.867,3.469,6.766,2.011,10.422c-4.117,10.34-11.335,18.176-21.46,23.293c-5.766,2.914-8.836,8.929-7.825,15.32
				c1,6.324,5.918,11.234,12.239,12.219c8.472,1.316,37.378,5.816,42.265,6.578c16.61,2.594,33.36,0.031,48.438-7.402l72.261-35.629
				c8-3.946,17.77-1.688,23.231,5.371C381.004,327.993,386.688,342.864,371.793,351.669L371.793,351.669z"/>
		</g>
	</g>
	<path style="fill:#FFFFFF;" d="M126.445,200.692l67.567,56.723c8.39,7.047,18.679,10.566,28.965,10.566
		c10.289,0,20.574-3.519,28.964-10.566l18.946-15.902c3.172-2.664,3.586-7.395,0.922-10.567s-7.395-3.582-10.567-0.922
		l-18.945,15.907c-11.195,9.394-27.445,9.394-38.641,0l-67.566-56.727c-3.149-2.641-2.235-6.031-1.879-7.008
		c0.355-0.976,1.836-4.16,5.945-4.16h17.731c4.144,0,7.5-3.355,7.5-7.5V55.684c0-9.433,7.675-17.105,17.105-17.105h80.969
		c9.434,0,17.105,7.672,17.105,17.105v114.852c0,4.145,3.36,7.5,7.5,7.5h17.735c4.105,0,5.586,3.184,5.941,4.16
		c0.356,0.977,1.27,4.367-1.875,7.008L286.5,208.821c-3.172,2.66-3.586,7.395-0.922,10.567c2.664,3.171,7.395,3.582,10.567,0.921
		l23.363-19.617c6.949-5.832,9.43-15.105,6.328-23.629c-3.102-8.519-10.969-14.027-20.035-14.027h-10.235V55.684
		c0-17.703-14.402-32.105-32.105-32.105h-80.969c-17.703,0-32.105,14.402-32.105,32.105v107.352h-10.235
		c-9.07,0-16.933,5.508-20.035,14.027C117.016,185.587,119.496,194.86,126.445,200.692L126.445,200.692z"/>
</g>
</svg>
